/* XPM */
static char * gcharmap_xpm[] = {
"64 64 36 1",
" 	c None",
".	c #565656",
"+	c #000000",
"@	c #D6722A",
"#	c #E09859",
"$	c #DB8F51",
"%	c #DB8946",
"&	c #C2893E",
"*	c #AA8936",
"=	c #AA8D3F",
"-	c #928D36",
";	c #95933B",
">	c #AE9445",
",	c #648F27",
"'	c #7C9131",
")	c #BE7425",
"!	c #188907",
"~	c #92892E",
"{	c #308A12",
"]	c #008900",
"^	c #4A8E1D",
"/	c #198A0A",
"(	c #328C13",
"_	c #47810E",
":	c #5F7E12",
"<	c #8E791C",
"[	c #777C17",
"}	c #498917",
"|	c #C7964F",
"1	c #498B1B",
"2	c #2F8309",
"3	c #188909",
"4	c #798C2D",
"5	c #618B24",
"6	c #C28E48",
"7	c #A77720",
"                                                                ",
"                                                                ",
"                                .. ..                           ",
"                                .. ..                           ",
"                                                                ",
"       .........                ....               ++           ",
"      ..........   +++++++    .......        +++++++@+          ",
"     ......@@..+   +######+   ..   ..++  ++++$%%%%@@@++         ",
"     ......@@..+   +#######++..++++..#+++####$%%%@@@@@+         ",
"     ......@@..+   +#########........#######$$%%%%@@@@+         ",
"     ......@@..@+ +$$########..#############$$%%%%@@@@@+        ",
"      .....@%..@+ +#$$#######...###..#++++##$$%%%%@@@@@+        ",
"       ....@%..@++%$$$#####++#......$$$$$####+%%%%%@@@@+        ",
"        +..@%..%+%%$$++########....$%%$$$####$+%%%%@@@@+        ",
"         ..@@..%%%%$$$#########$$$$%%%%$$####$%%%%%@@@@+        ",
"         ..@@..++%%$$++++++++##$$++++++$$+++++++%%%@@@@+        ",
"         ..@@..%%%+++$$######++++@@@@%%$$####$%%++%@@@@+        ",
"         ..@@..+++%$$$$#####$%%%@@@@%%%$$####$%%%+%@@@@+        ",
"         ..@@..%%%%$$$$#####$%%@@@@@@%%$$###$$%%%%%@@@@+        ",
"         ..@@..%%%+++$$#####$%%@@@@++%%$++++#++++%%@@@@+        ",
"         ..@@..%+++%$$$#++++%%++++@@%%%$$####$%%%%%@@@@@        ",
"         ..@@..+%%%%$$$####$%%@@@@@@%%%$$####$%%%%%@@++...      ",
"         ..@@..%%%%%$$+###$%%%@@@@@@@%%$$####$+++++@@+ ...      ",
"          +@@@%%%%%+$$$###++++++@@@@@%%+$+++$$%%%%%@@+ ...      ",
"          +@@@%++++%$$$###$%%@@@++@@@++$$$###$%%%%%@@+ ...      ",
"          +@@@@%%%%%$$$###$%%@@@@@@@@%%$$$###$%%%%%...........  ",
"          +@@@@%%%%%%$$###$%%@@@@@@@%%%$$$##$$%+++%...........  ",
"          +@@@@%%%%++$$+#++%%+++@.+@%%%$$$++$%%%%%@...........  ",
"          +@@@@%++%%%$$###$.....%..%%++++$##$%%%%%@@@+ ...      ",
"          +@@@@%%%%%%$$##.........%%%%$$$###++++%%@@+  ...      ",
"          +@@@@%%%%%%$$+...$%%%...%++$$$$++##%%%++@@@+ ...      ",
"          +@@@@%++++++$$..+++%....%$$$$++###%%%%%%%@@+ ...      ",
"          +@@@@%%%%%%$$...$$$..$..$$$$$$$$##%%%%%%%@@@+         ",
"         +@@@@@%%%%%%++..###..$$..$$$$######%%%%%%%...........  ",
"         +@@@@@@%%%++$$..##..+++..#++++++##++++%%%%...........  ",
"        +@@@@@@@+++%%$$..+..##+...##########%%%%%%%...........  ",
"        +@@++@++%%%%%$+....####..##########%%%%%%%@@@@@+        ",
"        +@+++@@@%%%%%$$....###...##########%%%%%%@@@@@@+        ",
"        +#+ +@@@%%%%%$$.........###########%%%%%@@@@@@@+        ",
"        ++ +@@@@%%%%%$..##....#############%%%%%@@@++++         ",
"           +@@@@%%%%%$$.###################%%%%@@@@+            ",
"           +@@@@%%%%%$$$$##################%%%%@@+++            ",
"           +@@@@%%%%%$$$$##################%%%#++               ",
"           +@@@@&*%%%$=--;;;>#######;,;,',#%%%+       ++        ",
"           +@@@)!~%%%$${],#,]^####'/'###^(#%%#+    +++@+        ",
"           +@@@_]~%%%$${];##]];##^]'####>^#%%+  +++@@@@+        ",
"          +@@@:!]~%%%$$]]##>]]>#'](######=$$++++@@@@@@@+        ",
"          +@@<[}]~%%%$-]{##^]^#|]];######$$$@@@@@@@@@@@+        ",
"          +@)_@}]~%%%$1]1'(^;##']]#######$$$@@@@@@@@@@@+        ",
"      . ..@)2@@}]~%%%$3]=#'],##^]^######$$$%%@@@@@%%%@@+        ",
"         +@_2_}!]~%%$=]3$##^],#^]^#####$$$$%%%%%%%%%%@@+        ",
"      ...@:<@%%}]~%%$4]1$##(]^#']^#####$$$%$%%%%%%%%%@..        ",
"      ...<[@@%%}]~%%${]-##|]]>#|/]|##$$56$$%%%%%%%%%%@..        ",
"     ..+..@@%%@!]}%%=]]$#;/];###|//4-446$%%%%%%%%%%%%@@+        ",
"     ..+..7@%@<<~~**----;;>#######=--6$$$%%%%%%%%%%%@@..        ",
"    .. +..@@@@@@%%%$$$$$#######$$$$$$$$$$%%%%%%%%%@@@..@+       ",
"    .. +..@@@@@@%%%$$$$$#$###$$$$$$$$$$%%%%%%@@@@@@@..@+        ",
"   ..  +..@@@@@+++++++++$$$$$$$$$$$%%%%%%%%@@@@@@@@..++         ",
"  ........@@+++         ++++#$$$%%%%%%%%%@@@@@@@@+..+           ",
"  .........+                +++++++++%%@@@@@@++++..    ..       ",
" ..    ++..                          ++++++++    ..    ..       ",
" ..      ..                                      .......        ",
"..       ..                                       .....         ",
"                                                                "};
