/* XPM */
static char * gcharmap_xpm[] = {
"16 16 148 2",
"  	c None",
". 	c #48423D",
"+ 	c #433C38",
"@ 	c #382616",
"# 	c #303030",
"$ 	c #361F0E",
"% 	c #3B3B3B",
"& 	c #765D4B",
"* 	c #7B573C",
"= 	c #1B120A",
"- 	c #DF9657",
"; 	c #D28E53",
"> 	c #6D5B4C",
", 	c #826247",
"' 	c #8E6542",
") 	c #B67B48",
"! 	c #DB8C4C",
"~ 	c #D87C36",
"{ 	c #85471A",
"] 	c #654C3A",
"^ 	c #896244",
"/ 	c #A46837",
"( 	c #98653A",
"_ 	c #9A683D",
": 	c #A9774C",
"< 	c #775A43",
"[ 	c #B1723E",
"} 	c #B47946",
"| 	c #895930",
"1 	c #D9833F",
"2 	c #A0551F",
"3 	c #604735",
"4 	c #896142",
"5 	c #88562D",
"6 	c #C07F48",
"7 	c #E09859",
"8 	c #B16E38",
"9 	c #BB6324",
"0 	c #CC7F40",
"a 	c #A77041",
"b 	c #B2733F",
"c 	c #A3612D",
"d 	c #553C2A",
"e 	c #99663E",
"f 	c #A46634",
"g 	c #CE884D",
"h 	c #8B5C35",
"i 	c #874F24",
"j 	c #CC7E40",
"k 	c #C07C44",
"l 	c #B06931",
"m 	c #6D4222",
"n 	c #351C0A",
"o 	c #C9702E",
"p 	c #C07E47",
"q 	c #C17F47",
"r 	c #AF6229",
"s 	c #A55A24",
"t 	c #BF763C",
"u 	c #C18049",
"v 	c #CD8447",
"w 	c #A66B3C",
"x 	c #534D48",
"y 	c #4B4B4B",
"z 	c #D77731",
"A 	c #88552B",
"B 	c #B27440",
"C 	c #755E4B",
"D 	c #715D4C",
"E 	c #8A674A",
"F 	c #966135",
"G 	c #A46836",
"H 	c #BD6D31",
"I 	c #3D2A1D",
"J 	c #2B2B2B",
"K 	c #6B3915",
"L 	c #D6742D",
"M 	c #906441",
"N 	c #8C6C50",
"O 	c #73573F",
"P 	c #8B6B4F",
"Q 	c #A66E3F",
"R 	c #C3834C",
"S 	c #B16F38",
"T 	c #C17E47",
"U 	c #5B4E45",
"V 	c #404040",
"W 	c #361E0D",
"X 	c #934E1C",
"Y 	c #DB8946",
"Z 	c #A3724A",
"` 	c #786656",
" .	c #927257",
"..	c #CE8F58",
"+.	c #DE9454",
"@.	c #C96F2C",
"#.	c #784017",
"$.	c #D6722A",
"%.	c #D68944",
"&.	c #CB894B",
"*.	c #CC9550",
"=.	c #DC9757",
"-.	c #C7964F",
";.	c #D0934E",
">.	c #B16D36",
",.	c #A57721",
"'.	c #93892E",
").	c #A58C3A",
"!.	c #8A9236",
"~.	c #6F902C",
"{.	c #D99756",
"].	c #B99045",
"^.	c #5E3718",
"/.	c #644B20",
"(.	c #7F801E",
"_.	c #92892E",
":.	c #708B28",
"<.	c #8F9037",
"[.	c #879135",
"}.	c #7D9131",
"|.	c #DF9658",
"1.	c #DB8E4F",
"2.	c #D87E39",
"3.	c #D9803B",
"4.	c #9E5D2C",
"5.	c #90673A",
"6.	c #B97C2D",
"7.	c #A28934",
"8.	c #8D8C34",
"9.	c #A49341",
"0.	c #C8954F",
"a.	c #998F3A",
"b.	c #BB8E45",
"c.	c #D98B49",
"d.	c #DA8642",
"e.	c #99633B",
"f.	c #805B40",
"g.	c #5D3112",
"h.	c #362212",
"i.	c #362314",
"j.	c #6E492A",
"k.	c #A46C3D",
"l.	c #A46939",
"m.	c #CD8041",
"n.	c #D87D38",
"o.	c #AE5E23",
"p.	c #85532F",
"q.	c #221C18",
"                                ",
"    . +   @     #       $       ",
"  % & * = - ; > , ' ) ! ~ {     ",
"    ] ^ / ( _ : < [ } | 1 2     ",
"    3 4 5 6 7 8 9 0 a b c 2     ",
"    d e f g h i 9 j } k l m     ",
"    n o f p q r s t u v w x y   ",
"    n z A B C D E F a G H I J   ",
"    K L f M N O P Q R S T U V   ",
"    W X Y Z `  ...7 +.Y @.#.    ",
"      $.%.&.*.=.7 -.;.>.n       ",
"      ,.'.).!.~.~.{.].^.#.{     ",
"    /.(._.:.<.[.}.|.1.2.3.4.    ",
"  J 5.6.7.8.9.0.a.b.c.Y d.e.    ",
"  % f.g.h.i.j.k.l.m.n.o.p.q.    ",
"                          J     "};
