/* XPM */
static char * tb_back_xpm[] = {
"20 20 3 1",
" 	c none",
".	c #000000000000",
"X	c #79E779E779E7",
"                    ",
"                    ",
"                    ",
"       .            ",
"      ..            ",
"     .X.            ",
"    .XX.........    ",
"   .XXXXXXXXXXX..   ",
"  .XXXXXXXXXXXX. .  ",
" .XXXXXXXXXXXXX..   ",
"  .XXXXXXXXXXXX. .  ",
"   .XXXXXXXXXXX..   ",
"    .XX......... .  ",
"     .X.. . . . .   ",
"      .. . . . . .  ",
"       ..           ",
"         .          ",
"                    ",
"                    ",
"                    "};
