/* XPM */
static char * tb_forward_xpm[] = {
"20 20 3 1",
" 	c None",
".	c #000000000000",
"X	c #618565956185",
"                    ",
"                    ",
"                    ",
"          .         ",
"          ..        ",
"          .X.       ",
"  .........XX.      ",
"  .XXXXXXXXXXX.     ",
"  .XXXXXXXXXXXX.    ",
"  .XXXXXXXXXXXXX.   ",
"  .XXXXXXXXXXXX.    ",
"  .XXXXXXXXXXX. .   ",
"  .........XX. .    ",
"   . . . ..X. .     ",
"    . . . .. .      ",
"          . .       ",
"           .        ",
"                    ",
"                    ",
"                    "};
