/* XPM */
static char * tb_home_xpm[] = {
"26 20 3 1",
" 	c None",
".	c #000000000000",
"X	c #79E779E779E7",
"                          ",
"                          ",
"                          ",
"                          ",
"            ..     ..     ",
"           .X.    .X.     ",
"          .XX..  .XX..    ",
"         .XXX.  .XXX.     ",
"        .XXX. ..XXX. .    ",
"       .XXX. ..XXX. .     ",
"        .XXX.  .XXX.      ",
"         .XXX.  .XXX.     ",
"          .XX..  .XX..    ",
"           .X.    .X.     ",
"            ...    ...    ",
"             .      .     ",
"                          ",
"                          ",
"                          ",
"                          "};
