/* XPM */
static char * tb_prop_dis_xpm[] = {
"20 20 4 1",
" 	c None",
".	c #618565956185",
"X	c #9E799A699E79",
"o	c #000000000000",
"                    ",
"                    ",
"    ..........      ",
"    .XXXXXXXX.o     ",
"    .X..X...X. o    ",
"    .XXXXXXXX.o     ",
"    .X...X..X. o    ",
"    .XXXXXXXX.o     ",
"    .X....X.X. o    ",
"    .XXXXXXXX.o     ",
"    .X.X...XX. o    ",
"    .XXXXXXXX.o     ",
"    .X..XX.... o    ",
"    .XXXXX.....     ",
"    .XXXXX......    ",
"    .............   ",
"     o o o o....... ",
"      o o o  .....  ",
"              ...   ",
"               . .  "};
