/* XPM */
static char * tb_preferences_xpm[] = {
"20 20 7 1",
" 	c None",
".	c #000000000000",
"X	c #FFFFFFFFFFFF",
"o	c #CF3CCF3CCF3C",
"O	c #08200C300820",
"+	c #AEBAAEBAAEBA",
"@	c #18611C711861",
"                    ",
"                    ",
"                    ",
"   ...........  .   ",
"   .XXXXXXXXXXX.    ",
"   .XXXXXXXXXX.     ",
"   .XoXXXXXXX..  .  ",
"   .XO+XXXXX..X .   ",
"   .XX@XXXX..XX. .  ",
"   .XX..XX...XX..   ",
"   .XXX..X..XXX. .  ",
"   .XXX.....XXX..   ",
"   .XXXX...XXXX. .  ",
"   .XXXXX..XXXX..   ",
"   .XXXXX.XXXXX. .  ",
"   .XXXXXXXXXXX..   ",
"   ............. .  ",
"    . . . . . . .   ",
"     . . . . . . .  ",
"                    "};
