/* XPM */
static char * tb_timer_stopped_xpm[] = {
"24 24 218 2",
"  	c None",
" .	c #000000",
" +	c #251616",
" @	c #1D1111",
" #	c #BFBFAA",
" $	c #291919",
" %	c #9D5F5F",
" &	c #935A5A",
" *	c #2A1A1A",
" =	c #A1A190",
" -	c #8F8F80",
" ;	c #1E1212",
" >	c #794949",
" ,	c #3A2323",
" '	c #2F1D1D",
" )	c #B66F6F",
" !	c #D28080",
" ~	c #855151",
" {	c #160D0D",
" ]	c #040404",
" ^	c #8D8D7E",
" /	c #848476",
" (	c #838375",
" _	c #623C3C",
" :	c #DF8888",
" <	c #7E4D4D",
" [	c #4B2D2D",
" }	c #B06B6B",
" |	c #D48181",
" 1	c #6E4343",
" 2	c #2F2A27",
" 3	c #7C7C6E",
" 4	c #A4A494",
" 5	c #ABAB9D",
" 6	c #B6B6A8",
" 7	c #B0B0A2",
" 8	c #73736A",
" 9	c #161614",
" 0	c #211414",
" a	c #A16262",
" b	c #D07F7F",
" c	c #523232",
" d	c #553434",
" e	c #CD7D7D",
" f	c #7C4C4C",
" g	c #C6C6B7",
" h	c #C5C5B7",
" i	c #C4C4B6",
" j	c #C2C2B4",
" k	c #BFBFB1",
" l	c #BBBBAF",
" m	c #63635C",
" n	c #E38A8A",
" o	c #9E6060",
" p	c #20201D",
" q	c #673F3F",
" r	c #BD7373",
" s	c #CB7B7B",
" t	c #925959",
" u	c #281818",
" v	c #CACABB",
" w	c #4B4B46",
" x	c #C2C2B5",
" y	c #BABAAF",
" z	c #5B3838",
" A	c #DC8686",
" B	c #412727",
" C	c #030302",
" D	c #BABAA5",
" E	c #9A9A89",
" F	c #4C2E2E",
" G	c #F99898",
" H	c #2B1A1A",
" I	c #C9C9BA",
" J	c #C1C1B4",
" K	c #352020",
" L	c #DE8787",
" M	c #505047",
" N	c #AFAF9D",
" O	c #9F9F90",
" P	c #CCCCBD",
" Q	c #382222",
" R	c #9F6161",
" S	c #CF7E7E",
" T	c #C7C7B8",
" U	c #211918",
" V	c #8D5656",
" W	c #D98484",
" X	c #965B5B",
" Y	c #1A1010",
" Z	c #AAAA98",
" `	c #A2A290",
". 	c #B3B3A4",
"..	c #CDCDBE",
".+	c #D1D1C2",
".@	c #221918",
".#	c #C8C8B9",
".$	c #724545",
".%	c #E08989",
".&	c #B46E6E",
".*	c #362121",
".=	c #121210",
".-	c #080807",
".;	c #B7B7A3",
".>	c #9D9D8D",
".,	c #BDBDAF",
".'	c #CDCDBF",
".)	c #D2D2C2",
".!	c #D6D6C6",
".~	c #BE7474",
".{	c #D38181",
".]	c #563535",
".^	c #B7B7A9",
"./	c #393935",
".(	c #4A4A45",
"._	c #11110F",
".:	c #B0B09D",
".<	c #959587",
".[	c #BABAAC",
".}	c #CCCCBE",
".|	c #D0D0C1",
".1	c #D4D4C4",
".2	c #D5D5C5",
".3	c #482C2C",
".4	c #E18989",
".5	c #E28A8A",
".6	c #734646",
".7	c #BABAAE",
".8	c #B6B6A9",
".9	c #686860",
".0	c #A8A896",
".a	c #919184",
".b	c #B8B8AA",
".c	c #CFCFC0",
".d	c #D1D1C1",
".e	c #E58C8C",
".f	c #F49595",
".g	c #C37777",
".h	c #301D1D",
".i	c #B9B9AD",
".j	c #B5B5A8",
".k	c #0D0D0C",
".l	c #C6C6B8",
".m	c #CBCBBD",
".n	c #E48B8B",
".o	c #D58282",
".p	c #CE7D7D",
".q	c #5F5B55",
".r	c #B3B3A7",
".s	c #030303",
".t	c #999989",
".u	c #A2A296",
".v	c #C3C3B6",
".w	c #B97171",
".x	c #E68C8C",
".y	c #845151",
".z	c #5A3737",
".A	c #CC7C7C",
".B	c #B1B1A6",
".C	c #2F2F2C",
".D	c #747468",
".E	c #7E7E70",
".F	c #A5A598",
".G	c #645F59",
".H	c #BF7474",
".I	c #BCBCAF",
".J	c #D18080",
".K	c #070706",
".L	c #1D1D1A",
".M	c #7C7C6F",
".N	c #86867A",
".O	c #8C5555",
".P	c #7A4A4A",
".Q	c #211817",
".R	c #B8B8AC",
".S	c #6F4343",
".T	c #B36D6D",
".U	c #646459",
".V	c #1C1413",
".W	c #824F4F",
".X	c #E88D8D",
".Y	c #C67979",
".Z	c #754747",
".`	c #76736C",
"+ 	c #B7B7AA",
"+.	c #B2B2A7",
"++	c #201717",
"+@	c #8B5555",
"+#	c #D78383",
"+$	c #A66565",
"+%	c #311E1E",
"+&	c #8E5757",
"+*	c #C27676",
"+=	c #B4B4A8",
"+-	c #B0B0A6",
"+;	c #AFAFA3",
"+>	c #ACACA0",
"+,	c #A56464",
"+'	c #985C5C",
"+)	c #170E0E",
"+!	c #A76666",
"+~	c #A8A89C",
"+{	c #B0B0A5",
"+]	c #AFAFA4",
"+^	c #AEAEA2",
"+/	c #9C9C91",
"+(	c #1A1A18",
"+_	c #714545",
"+:	c #342020",
"+<	c #BB7272",
"+[	c #A86767",
"+}	c #422828",
"+|	c #0E0E0C",
"+1	c #31312C",
"+2	c #42423C",
"+3	c #484842",
"+4	c #454540",
"+5	c #22221F",
"                                                ",
"                       .                        ",
"         + @         . # .                      ",
"       $ % & *     . # = - .           ; > ,    ",
"       ' ) ! ~ { . ] ^ / ( . . .       _ : <    ",
"         [ } | 1 2 3 4 5 6 7 8 9 .   0 a b c    ",
"           d e e f @ g h i j k l m . > n o ;    ",
"         . p q r s t u v w h x k y z A r B      ",
"         C D E F ) G o H w I h J K ) L _        ",
"       . M N O P Q R S o 0 P T U V W X Y        ",
"       . Z `. ...+ H a n <.@.#.$.%.&.*.=        ",
"      .-.;.>.,.'.).! B.~ L V 1.{.{.].^./.(      ",
"      ._.:.<.[.}.|.1.2.3.&.4 A.5.6.7.8.9 .      ",
"      .=.0.a.b v...c.d.c >.e.f.g.h.i.j.9 .      ",
"      .k = ^.8.l I.m P F.g.n.o.p f.q.r.9 .      ",
"      .s.t 3.u.v h T.3.w.x.y.z r.A q.B.C.(      ",
"       ..D.E.F k.G z.H L t Y.I q e.J.].K        ",
"        .L.M.N Y.O b.5.P.Q y.R.8.S :.T.*        ",
"         ..U.V.W.X.Y.Z.`.R+ .j+.+++@+#+$+%      ",
"          +%+& L+* d.j.j+=+.+-+;+> ++, G+'+)    ",
"         ++! A.&.3+~+{+{+]+;+^+/+( .+%+'+_+)    ",
"        +:+<+[+}+|+1+2+3 w+4+5 . .    +)+)      ",
"          +: +     . . . . . .                  ",
"                                                "};
