/* XPM */
static char * tb_timer_xpm[] = {
"24 24 151 2",
"  	c None",
" .	c #000000",
" +	c #BFBFAA",
" @	c #A1A190",
" #	c #8F8F80",
" $	c #040404",
" %	c #8D8D7E",
" &	c #848476",
" *	c #838375",
" =	c #080807",
" -	c #4F4F47",
" ;	c #7C7C6E",
" >	c #A4A494",
" ,	c #ABAB9D",
" '	c #B6B6A8",
" )	c #B0B0A2",
" !	c #73736A",
" ~	c #161614",
" {	c #22221E",
" ]	c #939383",
" ^	c #9E9E8F",
" /	c #B1B1A3",
" (	c #C6C6B7",
" _	c #C5C5B7",
" :	c #C4C4B6",
" <	c #C2C2B4",
" [	c #BFBFB1",
" }	c #BBBBAF",
" |	c #63635C",
" 1	c #20201D",
" 2	c #B9B9A5",
" 3	c #989888",
" 4	c #C8C8B9",
" 5	c #CACABB",
" 6	c #4B4B46",
" 7	c #C2C2B5",
" 8	c #BABAAF",
" 9	c #686860",
" 0	c #030302",
" a	c #BABAA5",
" b	c #9A9A89",
" c	c #B2B2A3",
" d	c #CCCCBD",
" e	c #CECEBF",
" f	c #CFCFC0",
" g	c #C9C9BA",
" h	c #C1C1B4",
" i	c #BDBDB0",
" j	c #B8B8AC",
" k	c #242421",
" l	c #505047",
" m	c #AFAF9D",
" n	c #9F9F90",
" o	c #D2D2C3",
" p	c #D4D4C4",
" q	c #C7C7B8",
" r	c #C3C3B6",
" s	c #B9B9AE",
" t	c #9D9D92",
" u	c #AAAA98",
" v	c #A2A290",
" w	c #B3B3A4",
" x	c #CDCDBE",
" y	c #D1D1C2",
" z	c #D6D6C6",
" A	c #D8D8C8",
" B	c #C0C0B1",
" C	c #B6B6A9",
" D	c #121210",
" E	c #B7B7A3",
" F	c #9D9D8D",
" G	c #BDBDAF",
" H	c #CDCDBF",
" I	c #D2D2C2",
" J	c #D9D9C8",
" K	c #C9C9B9",
" L	c #C4C4B7",
" M	c #B7B7A9",
" N	c #393935",
" O	c #4A4A45",
" P	c #11110F",
" Q	c #B0B09D",
" R	c #959587",
" S	c #BABAAC",
" T	c #CCCCBE",
" U	c #D0D0C1",
" V	c #D5D5C5",
" W	c #BABAAE",
" X	c #A8A896",
" Y	c #919184",
" Z	c #B8B8AA",
" `	c #D1D1C1",
". 	c #BEBEB0",
"..	c #B9B9AD",
".+	c #B5B5A8",
".@	c #0D0D0C",
".#	c #C6C6B8",
".$	c #CBCBBD",
".%	c #BFBFB2",
".&	c #B7B7AB",
".*	c #B3B3A7",
".=	c #030303",
".-	c #999989",
".;	c #A2A296",
".>	c #C8C8B8",
".,	c #C0C0B2",
".'	c #B1B1A6",
".)	c #2F2F2C",
".!	c #747468",
".~	c #7E7E70",
".{	c #A5A598",
".]	c #C1C1B3",
".^	c #C3C3B5",
"./	c #BCBCAF",
".(	c #B6B6AA",
"._	c #B2B2A7",
".:	c #AFAFA4",
".<	c #070706",
".[	c #1D1D1A",
".}	c #7C7C6F",
".|	c #86867A",
".1	c #B7B7AC",
".2	c #AFAFA5",
".3	c #6E6E65",
".4	c #646459",
".5	c #7A7A6D",
".6	c #9C9C90",
".7	c #B7B7AA",
".8	c #A8A89C",
".9	c #0A0A09",
".0	c #050504",
".a	c #79796C",
".b	c #78786C",
".c	c #B0B0A3",
".d	c #B4B4A8",
".e	c #B0B0A6",
".f	c #AFAFA3",
".g	c #ACACA0",
".h	c #292926",
".i	c #5B5B50",
".j	c #929283",
".k	c #B0B0A5",
".l	c #AEAEA2",
".m	c #9C9C91",
".n	c #1A1A18",
".o	c #0E0E0C",
".p	c #31312C",
".q	c #42423C",
".r	c #484842",
".s	c #454540",
".t	c #22221F",
"                                                ",
"                       .                        ",
"                     . + .                      ",
"                   . + @ # .                    ",
"                 . $ % & * . . .                ",
"             . = - ; > , ' ) ! ~ .              ",
"           . { ] ^ / ( _ : < [ } | .            ",
"         . 1 2 3 4 5 5 5 6 _ 7 [ 8 9 .          ",
"         0 a b c d e f e 6 g _ h i j k .        ",
"       . l m n d f o p o 6 d q r [ s t .        ",
"       . u v w x y z A z 6 x 4 : B } C D        ",
"       = E F G H I z J z 6 H K L B } M N O      ",
"       P Q R S T U p V p 6 T 4 r [ W C 9 .      ",
"       D X Y Z 5 x f ` f x 6 ( <. ...+ 9 .      ",
"      .@ @ % C.# g.$ d.$ g.# 6.% }.&.* 9 .      ",
"      .=.- ;.; r _ q.> q _ r., 6.. C.'.) O      ",
"       ..!.~.{ [.] 7.^ 7.] [./...(._.:.<        ",
"        .[.}.|.1 G. . .  G 8 j C.*.2.3 .        ",
"         ..4.5.6 j...... j.7.+._.:.8.9          ",
"          .0.a.b.c.+.+.+.d._.e.f.g.h .          ",
"             0.i.j.8.k.k.:.f.l.m.n .            ",
"               ..o.p.q.r 6.s.t . .              ",
"                   . . . . . .                  ",
"                                                "};
